<?xml version="1.0" encoding="UTF-8"?>
<svg id="Capa_2" data-name="Capa 2" xmlns="http://www.w3.org/2000/svg" viewBox="0 0 88.62 95.49">
  <defs>
    <style>
      .cls-1 {
        fill: #956830;
      }
    </style>
  </defs>
  <g id="Capa_1-2" data-name="Capa 1">
    <path class="cls-1" d="M8.53,1.89c-1.21,1.88-1.13,2.26.45,7.69.9,3.24,2.86,7.76,4.3,10.18,3.09,4.98,3.17,7.92.38,8.9-1.51.6-2.19.23-4.52-2.34-2.94-3.24-4.82-3.69-7.46-1.81-2.34,1.58-2.19,5.13.23,7.39,1.51,1.36,3.02,1.88,6.71,2.11,4.37.23,7.24,1.58,7.24,3.24,0,.3.53,1.66,1.21,3.02,1.43,3.02,3.24,3.62,7.54,2.49,2.56-.75,3.47-.68,4.45.15,1.58,1.28,1.06,4.45-1.21,7.61-1.73,2.49-1.66,4.15.53,9.88,1.73,4.52.9,7.61-2.11,7.99-2.86.3-5.13-3.39-5.13-8.37,0-6.18-3.24-10.48-7.92-10.48-4.3,0-6.56,2.86-5.2,6.48.23.68,2.11,2.11,4.15,3.24,4.15,2.19,4.22,2.41,4.67,11.08.38,7.69,1.73,9.12,9.35,9.88,2.79.23,5.73.98,6.56,1.51,1.06.83,4.07,9.27,4.22,11.84,0,.3,1.36.98,3.02,1.43,2.79.83,3.24.75,6.56-1.43,8.59-5.58,9.95-6.26,13.87-6.63,6.26-.6,7.39-.98,8.22-2.64.68-1.13.6-1.81-.08-2.64-1.13-1.36-3.32-1.36-7.76.15-4.82,1.66-7.24.68-7.24-2.94,0-5.73,5.5-7.24,15.98-4.3,3.02.83,6.63,1.51,8.07,1.51,4,0,8.74-2.64,10.18-5.65,1.13-2.41,1.13-2.79.08-4.9-.6-1.21-1.73-2.26-2.34-2.26-.68,0-2.64,1.51-4.37,3.32-1.81,1.81-4,3.54-4.82,3.77-3.39,1.13-6.33-2.49-4.67-5.58.45-.83,2.79-2.56,5.28-3.77,5.5-2.79,7.92-5.28,9.8-10.4,2.04-5.43,1.88-8.97-.68-14.63-5.2-11.23-5.43-12.82-3.54-21.94.75-3.69.9-5.88.3-7.92-1.36-5.43-6.26-7.16-9.72-3.47-4.07,4.37-1.28,17.64,6.86,32.72,1.96,3.54,1.81,7.16-.3,11.68-1.96,4.15-3.54,5.88-6.63,7.09-1.58.6-2.34.53-3.24-.38-1.51-1.51-1.43-2.19.53-6.86,1.36-3.24,1.43-4.3.75-5.88-.68-1.43-1.43-1.88-3.32-1.88-3.84,0-4.75.98-4.67,5.05.08,1.96.38,5.2.68,7.09.75,4.9-.6,8.52-4,10.86-1.51,1.06-3.84,1.88-5.13,1.88-2.79,0-4.6,1.81-5.73,5.73-.38,1.66-1.13,3.39-1.51,3.84-1.06,1.28-4,1.28-4.98,0-2.34-2.79-1.51-14.93,1.21-18.62.75-1.06,3.02-2.79,5.05-3.84,4.37-2.34,6.18-4.37,7.16-8.44.45-1.73,1.96-5.73,3.39-8.82,3.02-6.56,3.09-6.94,1.36-9.88-.9-1.51-1.88-2.19-3.32-2.19-3.39,0-4.6,2.26-5.28,9.88-.83,8.67-3.17,13.95-7.61,16.81-1.58,1.06-2.34,1.13-3.54.45-1.96-.98-1.43-2.19,2.86-6.33,4.9-4.75,4.9-7.84,0-14.17-3.17-4-3.39-6.33-1.13-12.06,3.17-7.92,2.26-12.67-2.34-12.67-3.09,0-5.43,2.26-6.71,6.48-1.51,5.05-1.36,8.67.75,14.85,2.49,7.46,2.94,10.33,1.96,12.89-.75,1.96-.9,2.04-2.11.98-.68-.68-2.94-1.88-4.9-2.71-4.52-1.96-4.98-2.94-8.07-18.17C18.48,4.91,17.35,2.05,14.64.76c-2.94-1.28-4.67-.98-6.11,1.13Z"/>
  </g>
</svg>