<?xml version="1.0" encoding="UTF-8"?>
<svg id="Capa_2" data-name="Capa 2" xmlns="http://www.w3.org/2000/svg" viewBox="0 0 138.49 87.79">
  <defs>
    <style>
      .cls-1 {
        fill: #fff;
      }
    </style>
  </defs>
  <g id="Capa_1-2" data-name="Capa 1">
    <g>
      <path class="cls-1" d="M99.16,35.87c.24-.46.25-.94.16-4.19-.13-3.85.03-6.48.48-8.01.13-.46.59-1.45,1.03-2.18,1.18-1.96,1.21-2.8.11-3.36-.43-.22-1.39-.27-6.64-.33-6.72-.09-7.2-.05-8.01.75-.37.38-.45.59-.45,1.24,0,1.34.8,1.94,2.53,1.94,2.36,0,3.36,1.43,3.15,4.49-.22,3.41-2.72,5.48-5.92,4.92-1.45-.25-2.08-.61-3.33-1.85-2.52-2.52-3.49-5.33-3.5-10.11,0-6,1.48-10.73,4.16-13.23.92-.88,1.21-1.03,2.13-1.24,1.56-.35,4,.81,5.4,2.56.4.49,1.29,1.85,1.97,2.99,1.64,2.71,2.02,3.25,2.83,3.82,1.23.89,3.09.56,3.73-.67.53-1,.72-10.95.22-11.94-.37-.76-.72-.72-1.78.27l-.97.91-.89-.06c-.62-.05-1.45-.32-2.77-.91-2.68-1.18-3.63-1.4-7.28-1.67-.4-.03-1.35,0-2.15.08-2.66.22-5.21,1.19-7.23,2.74-.48.37-1.59,1.39-2.47,2.26-1.8,1.8-2.77,3.31-3.73,5.88-1.07,2.83-1.58,6.78-1.42,11.21.09,2.98.51,4.79,1.61,7.12,1.77,3.73,4.46,6.11,8.3,7.34,2.29.73,4.33.96,6.34.72,2.16-.25,3.57-.78,5.38-2.02.86-.57,1.62-1,1.7-.96.09.05.22.49.27.97.17,1.39,1.02,1.86,3.33,1.85,2.31-.03,3.18-.35,3.69-1.32Z"/>
      <path class="cls-1" d="M35.98,31.51c2.45,3.39,6.18,5.41,10.78,5.84,2.32.22,6.46.09,7.83-.24,2.31-.57,5.09-2.26,7.13-4.31,2.5-2.53,3.89-5.89,4.3-10.51.16-1.85-.46-8.12-.99-9.95-1.77-6.13-5.21-9.85-10.43-11.3-2.16-.61-5.75-.92-7.53-.69-2.23.32-4.71,1.37-6.61,2.83-1.39,1.07-3.92,3.95-4.84,5.49-2.08,3.52-2.8,6.45-2.8,11.45s.89,8.23,3.15,11.38ZM47.91,4.91c.97-.33,2.39-.27,3.31.16,3.33,1.54,5.76,9.04,5.17,15.86-.24,2.64-.88,6.27-1.34,7.53-.46,1.24-1.39,2.69-1.97,3.12-1.82,1.26-3.9,1.4-5.8.38-2.68-1.45-4.19-5.59-4.38-11.94-.22-7.83,1.8-13.96,5-15.11Z"/>
      <path class="cls-1" d="M10.78,16.88c1.51,2.52,2.2,3.9,2.64,5.33.33,1.05.38,1.5.37,3.74-.03,5.06-.65,6.67-3.22,8.39-1.19.8-1.23,2.12-.08,2.63.51.22,1.1.27,3.55.22,1.62-.02,4.75-.05,6.93-.06,3.34-.03,4.08-.08,4.57-.3,1.18-.53.96-1.59-.59-2.85-1.86-1.51-2.31-2.91-2.32-7.31,0-2.96.17-4.16.81-5.65.29-.69,4.63-8.38,5.48-9.71.29-.45.78-1.31,1.13-1.91,1.13-2.04,2.2-3.49,3.58-4.86,1.94-1.9,2.12-2.36,1.29-3.2l-.46-.46h-4.65c-4.97,0-5.51.08-5.89.81-.29.51-.08,1.39.49,2.1,1.31,1.62,1.16,3.95-.51,7.85-1.37,3.17-2.58,4.92-3.3,4.73-.41-.09-1.37-1.66-3.15-5.06-1.39-2.69-1.82-3.92-1.82-5.3,0-1.24.29-1.9,1.13-2.56.53-.43.62-.61.62-1.11,0-.94-.4-1.19-2.04-1.29-.76-.05-2.53-.02-3.93.05-1.62.09-3.57.08-5.33-.03C1.75.78.92.81.43,1.24c-.32.27-.43.51-.43.96,0,.73.27,1.07,1.45,1.72,1.23.7,2.87,2.32,3.98,3.95.51.75,1.66,2.66,2.56,4.23.91,1.58,2.16,3.73,2.79,4.78Z"/>
      <path class="cls-1" d="M138.36,35.2c-.09-.19-.69-.81-1.31-1.39-1.8-1.67-2.74-3.68-4.31-9.22-1.24-4.31-2.07-7.71-2.47-9.95-.19-1.05-.54-2.99-.81-4.3-.25-1.32-.57-3.39-.69-4.62-.13-1.23-.35-2.55-.49-2.95-.32-.91-.94-1.54-1.66-1.75-.85-.24-13.86-.18-15.01.06s-1.4.46-1.4,1.21c0,.64.3.99,1.7,1.93.96.64,1.39,1.67,1.39,3.33,0,1.75-.33,3.07-2.23,8.92-2.63,8.1-4.41,12.85-5.43,14.55-.33.53-1.29,1.69-2.13,2.56-1.82,1.86-1.97,2.23-1.27,2.83.84.72,1.82.8,7.08.69,2.61-.06,4.92-.17,5.13-.25.61-.24,1.02-.76,1.02-1.29,0-.37-.21-.7-.86-1.39-.46-.49-.96-1.13-1.1-1.39-.38-.75-.64-2.39-.54-3.42.14-1.64.91-2.63,2.32-3.02.75-.21,5.81-.21,6.56,0,1.91.54,2.83,2.36,2.52,5-.16,1.29-.41,1.78-1.51,2.98-1,1.08-1.08,1.53-.41,2.21.64.62,1.16.67,8.39.61,5.72-.05,6.26-.06,6.77-.35.83-.45,1.08-.99.76-1.59ZM118.73,22.3c-4.46.14-4.2.43-3.42-3.81.96-5.11,2.24-9.55,3.07-10.59.37-.46.81-.13,1.39,1.02.3.62.72,1.77.91,2.55,1.42,5.64,2.01,8.25,2.07,9.15q.13,1.53-4.01,1.67Z"/>
      <path class="cls-1" d="M55.92,42.27c.99,0,1.75,1.21,1.75,2.77,0,.41.11.64.49.96.89.76,2.12.4,2.69-.78.75-1.54-.02-3.49-1.61-4.12-.65-.27-2.74-.46-3.49-.32-1.82.32-2.77.78-3.85,1.78-1.4,1.31-1.91,2.69-1.91,5.19,0,2.77.88,4.25,3.17,5.38,1.02.49,1.18.53,2.76.53,1.4,0,1.8-.06,2.47-.37,1.96-.91,2.85-1.96,2.75-3.33-.06-.99-.37-1.05-1.29-.3-.86.7-1.94,1.19-2.63,1.21-1.31,0-2.53-1.07-3.09-2.71-.43-1.27-.48-3.42-.08-4.31.35-.78,1.27-1.58,1.86-1.58Z"/>
      <path class="cls-1" d="M71.36,53.23c2.58-1.21,3.71-3.01,3.69-5.92-.02-3.02-1.61-5.38-4.17-6.16-.87-.27-3.01-.32-3.82-.08-1.82.53-2.98,1.46-3.74,3.01-1.77,3.58-.7,7.53,2.44,9.06,1.02.51,1.15.53,2.9.53,1.64-.02,1.93-.05,2.71-.43ZM66.79,49.88c-.43-1.27-.4-4.7.06-5.72.68-1.48,1.91-1.99,2.88-1.18,1.46,1.24,1.91,5.51.8,7.71-.99,1.93-2.93,1.51-3.74-.81Z"/>
      <path class="cls-1" d="M84.32,51.63c-.57,1.02-.46,1.54.38,1.78.78.24,4.98,0,5.35-.3.35-.3.32-.72-.13-1.24-.78-.94-.81-1.08-.89-4.68q-.08-3.44-.56-4.38c-.41-.8-.61-.99-1.35-1.37-.95-.46-1.75-.59-2.86-.45-.89.11-1.29.33-2.24,1.23l-.76.7-.11-.73c-.14-1-.54-1.26-1.56-1.03-1.64.37-4.23,1.69-4.23,2.15,0,.11.24.37.53.54.7.43.91.92,1.11,2.68.24,2.01-.02,3.92-.69,5.19-.92,1.78-.81,1.86,2.63,1.86,2.45,0,2.77-.03,2.99-.29.38-.41.33-.78-.19-1.61-.69-1.07-.86-1.97-.78-4.06.06-1.54.13-1.93.49-2.68.94-1.9,3.12-2.1,3.61-.32.24.86.19,3.92-.08,5.17-.13.59-.41,1.42-.65,1.83Z"/>
      <path class="cls-1" d="M108.17,44.04c-.78-.53-2.01-.62-2.66-.21-.57.37-1.08.92-1.96,2.1-1.39,1.9-3.2,3.46-5.3,4.55-1.35.72-1.66,1.1-1.53,1.99.24,1.77,2.23,2.21,5.29,1.18,2.08-.7,5.08-2.42,6.27-3.6,2.04-2.02,2.01-4.59-.11-6.02Z"/>
      <path class="cls-1" d="M40.92,82.08c-2.64-.89-3.93-2.47-6.11-7.42-1.66-3.73-3.1-5.81-5.09-7.32-.56-.43-1-.84-.97-.92.03-.09.73-.41,1.56-.73,2.26-.86,3.46-1.56,4.6-2.71,1.75-1.75,2.71-4,2.71-6.37s-.8-4.43-2.4-5.99c-1.56-1.48-2.99-2.18-5.94-2.93-1.32-.33-1.78-.35-9.85-.4-4.67-.03-8.76-.09-9.11-.13-.35-.05-1.1-.03-1.67.03-1.29.14-1.72.37-2.01,1.05-.3.75-.13,1.13,1.18,2.42,1.91,1.9,2.08,2.98,2.21,13.82.14,11.32-.14,13.2-2.36,15.38-1.03,1.02-1.26,1.61-.88,2.36.46.88,1.1.96,8.14.91,7.02-.03,7.21-.06,7.66-1.13.21-.49.21-.62-.02-1.03-.13-.25-.64-.76-1.1-1.1-1.83-1.37-2.16-2.36-2.28-6.86-.06-2.95-.05-3.31.22-3.82.41-.78.89-.99,2.02-.88,1.19.13,1.66.37,2.42,1.26,1.02,1.16,1.67,3.25,2.44,7.77.53,3.1.88,4.28,1.74,5.92.88,1.67,2.04,2.83,3.6,3.6,1.94.96,3.36,1.15,5.38.73,2.74-.59,5.33-2.82,5.19-4.51-.05-.59-.06-.59-1.27-1ZM27.58,58.57c-.53,3.65-2.47,5.35-6.37,5.61-1.72.11-1.93-.02-2.07-1.31-.14-1.24-.03-7.42.17-9.22.09-.81.29-1.64.45-1.91.45-.76.84-.89,2.8-.84,1.57.05,1.83.09,2.5.49.41.24.96.69,1.18.97,1.1,1.37,1.66,4,1.34,6.21Z"/>
      <path class="cls-1" d="M88.75,75.15c-2.12,1.66-3.73,2.23-5.99,2.12-1.19-.06-1.61-.14-2.39-.54-2.55-1.26-3.95-3.63-4.41-7.44-.19-1.62-.14-2.56.27-4.54.33-1.64.86-2.74,1.77-3.71,1.64-1.75,3.01-1.86,4.38-.33.88.97,1.35,2.02,1.72,3.85.53,2.56.92,3.14,2.42,3.5,2.82.72,5.33-3.09,4.28-6.46-.76-2.47-2.74-4.01-6.23-4.84-1.42-.34-4.15-.42-5.81-.16-2.53.38-5.01,1.67-7.23,3.74-2.71,2.53-3.96,6.23-3.79,11.15.09,2.72.51,4.51,1.46,6.23,2.18,3.92,6.37,5.99,11.58,5.76,3.58-.16,6.99-1.8,9.14-4.39.83-1,1.61-2.36,1.67-2.9.08-.69-.05-1.16-.41-1.51-.62-.64-1.16-.53-2.44.48Z"/>
      <path class="cls-1" d="M127.3,57.25c-.69-.27-1.62-.57-2.1-.65-1.15-.21-3.33-.17-4.78.09-2.83.51-4.94,1.64-7.1,3.81-2.69,2.69-3.85,5.56-3.98,9.79-.17,5.52,2.76,9.07,3.22,9.52.46.46,1,.92,1,.92,0,0,.35.3.65.52.98.74,2.49,1.23,2.65,1.29,3.37,1.08,6.06.89,6.06.89,1.77-.13,3.51-.6,5.21-1.41,4.51-2.15,7.07-6.18,7.36-11.56.11-2.16-.16-3.76-1-5.94-1.46-3.82-3.39-5.76-7.18-7.26ZM127.03,74.99c-.69,2.24-1.64,3.69-2.87,4.33-.59.3-1.93.3-2.66,0-.73-.3-1.91-1.31-2.24-1.93-.4-.72-1.24-3.49-1.5-4.87-.29-1.62-.27-4.92.03-6.8.7-4.43,2.96-6.53,5.58-5.22,1.5.75,2.88,3.07,3.66,6.13.37,1.48.41,1.97.41,4.3s-.05,2.76-.43,4.06Z"/>
      <path class="cls-1" d="M56.4,57.06c-1.39-.45-4.78-.56-6.61-.22-1.91.37-4.23,1.56-5.67,2.91-3.55,3.33-4.98,7.1-4.7,12.29.11,2.1.37,3.28,1.02,4.87,1.48,3.58,3.46,5.11,8.15,6.35,2.16.59,5.56.29,8.34-.73,4.03-1.46,6.74-4.52,7.85-8.9,1.15-4.54.25-9.2-2.42-12.45-1.42-1.75-3.92-3.46-5.97-4.12ZM57.19,72.24c-.56,5.32-2.76,8.09-5.68,7.21-1.58-.46-2.6-2.08-3.6-5.65-.29-1.03-.33-1.62-.33-4.46s.05-3.42.35-4.51c.53-1.9,1.1-3.06,1.88-3.77.64-.57.86-.69,1.74-.84.54-.08,1.45.14,2.05.51,2.44,1.51,4.09,6.83,3.6,11.51Z"/>
      <path class="cls-1" d="M106.72,79.99c-1.56-1.48-1.83-2.36-2.01-6.59-.09-2.52-.11-8.23-.02-8.84.03-.22.11-.76.17-1.19.05-.45.27-1.64.49-2.69.49-2.47.49-3.18-.02-3.68-.33-.33-.53-.4-1.39-.38-.63,0-1.35.13-1.95.36-.53.19-1.67.69-2.55,1.08-.88.4-2.12.91-2.76,1.16-1.8.67-2.6,1.29-2.88,2.2-.22.72-.21.78.09,1.19.17.24.69.64,1.13.91,1.13.67,1.61,1.39,1.85,2.74.22,1.29.27,4.81.11,7.15-.27,3.84-.76,5.4-2.23,6.93-.99,1.03-1.13,1.45-.7,2.02.46.62,1.56.88,3.23.75.75-.05,1.96-.13,2.69-.19.73-.05,2.16,0,3.18.11,3.01.32,4.47-.19,4.47-1.58,0-.48-.13-.69-.94-1.46Z"/>
    </g>
  </g>
</svg>