<?xml version="1.0" encoding="UTF-8"?>
<svg id="Capa_2" data-name="Capa 2" xmlns="http://www.w3.org/2000/svg" viewBox="0 0 91.89 92.9">
  <defs>
    <style>
      .cls-1 {
        fill: #956830;
      }
    </style>
  </defs>
  <g id="Capa_1-2" data-name="Capa 1">
    <path class="cls-1" d="M42.65,2.13c-1.06,1.28-2.41,3.39-3.09,4.75-1.73,3.69-5.65,15.68-5.65,17.34,0,1.06-.38,1.36-1.28,1.06-.75-.3-5.96-2.04-11.53-4-10.55-3.62-17.49-5.13-19.9-4.37-1.21.38-1.36,1.06-1.06,4.82.45,6.03,5.5,16.51,16.28,33.47l2.34,3.69-2.11,2.71c-6.63,8.44-14.1,21.86-14.93,26.84-.98,6.18,6.18,4,27.29-8.29,6.03-3.54,11.76-6.86,12.67-7.54.9-.6,1.88-1.13,2.19-1.13.23,0,3.32,2.49,6.86,5.43,9.57,8.29,9.95,8.67,14.78,11.91,2.49,1.73,5.5,3.39,6.78,3.77,2.04.6,2.34.45,3.02-1.66,1.66-4.82.75-20.28-2.19-37.32l-.75-4.67,8.82-8.9c8.74-8.74,11.61-12.44,10.48-13.57-.98-.98-11.68-.45-19.3.9-3.92.68-8.37,1.43-9.88,1.66l-2.71.38-3.24-9.27c-3.54-10.33-5.28-14.17-8.07-17.87-2.26-3.02-3.32-3.02-5.8-.15ZM47.55,14.87c.68,2.26.6,4.37-.45,10.48-.9,5.58-1.06,7.99-.45,9.12,1.06,1.88-.23,2.86-1.81,1.28-2.79-2.71-3.47-9.27-1.58-14.63.6-1.66,1.36-4.6,1.58-6.48.6-4,1.51-3.92,2.71.23ZM14.91,28.14c1.28.68,4.75,3.92,7.76,7.16,2.94,3.32,6.11,6.18,6.94,6.48,2.41.75-.3,1.88-3.09,1.36-2.71-.53-5.73-3.39-10.48-9.8-1.96-2.64-3.77-4.82-4.15-4.82-.3,0-.6-.38-.6-.75,0-1.06.9-.98,3.62.38ZM83.21,30.17c-2.11,3.62-4.6,5.8-8.37,7.54-5.05,2.34-18.32,6.56-18.32,5.88,0-.9,4.15-4.22,6.78-5.5,1.43-.68,5.65-2.41,9.42-3.92,3.69-1.43,7.24-3.17,7.84-3.77,1.43-1.36,3.39-1.51,2.64-.23ZM55.32,58.44c1.43,1.51,4.22,6.03,6.18,9.95,1.88,4,4.37,8.37,5.35,9.72,1.06,1.36,1.73,2.71,1.51,2.94-.75.75-7.16-4.22-8.59-6.71-.75-1.36-2.56-5.35-4-8.9-1.36-3.54-2.94-6.94-3.54-7.61-.53-.6-.98-1.43-.98-1.66,0-1.21,1.58-.3,4.07,2.26ZM34.28,58.82c-.9,4.67-6.56,11.01-13.95,15.68-1.06.6-2.94,2.26-4.3,3.62-2.79,2.79-3.17,2.11-1.06-1.96,1.36-2.64,4.82-6.11,13.34-13.34,1.88-1.66,3.84-3.77,4.3-4.75,1.13-2.49,2.26-2.04,1.66.75Z"/>
  </g>
</svg>